<?xml version="1.0" encoding="utf-8"?>
<!-- Generator: Adobe Illustrator 21.0.0, SVG Export Plug-In . SVG Version: 6.00 Build 0)  -->
<svg version="1.1" id="Layer_1" xmlns="http://www.w3.org/2000/svg" xmlns:xlink="http://www.w3.org/1999/xlink" x="0px" y="0px"
	 viewBox="0 0 54 54" style="enable-background:new 0 0 54 54;" xml:space="preserve">
<style type="text/css">
	.st0{fill:url(#SVGID_1_);}
</style>
<linearGradient id="SVGID_1_" gradientUnits="userSpaceOnUse" x1="-55.7569" y1="26.3125" x2="101.0435" y2="26.3125">
	<stop  offset="0" style="stop-color:#A77AFF"/>
	<stop  offset="1" style="stop-color:#6BCFFF"/>
</linearGradient>
<path class="st0" d="M25.9,0C12.1,0.5,0.8,11.7,0,25.5c-0.7,12.5,7.1,23.2,18.1,27c1.3,0.5,2.8-0.6,2.8-2v-4.9
	c-1.4,0.5-6.8,1.1-8.3-3c-1.7-4.4-4.7-3.9-3.3-4.8c1-0.6,3.6,0.5,4.3,2c2.1,4.3,5.5,2.9,7.3,2.4c0,0,0,0,0,0
	c0.1-1.3,0.7-2.4,1.5-3.3c-6.9-0.2-11.1-5.2-11.1-11.5v0c0-3,1-5.4,2.5-7.3c-0.3-0.8-0.5-1.7-0.3-2.7c0,0,0.3-3,0.6-3.7
	c1.2,0,4.5,0.6,6.5,2.4c3.8-1.1,9.7-0.9,12.7,0.1c1.9-1.9,5.3-2.6,6.6-2.5c0.4,0.7,0.6,3.7,0.6,3.7c0.2,1,0,2.1-0.5,2.9
	c1.6,1.8,2.5,4.2,2.5,7v0c0,6.3-3.9,11.2-11.1,11.5c1,0.9,1.5,2.2,1.5,3.6v8c0,1.4,1.4,2.5,2.8,2C46.4,48.9,54,38.8,54,27
	C54,11.7,41.3-0.6,25.9,0z"/>
</svg>
