<?xml version="1.0" encoding="utf-8"?>
<!-- Generator: Adobe Illustrator 21.0.0, SVG Export Plug-In . SVG Version: 6.00 Build 0)  -->
<svg version="1.1" id="Layer_1" xmlns="http://www.w3.org/2000/svg" xmlns:xlink="http://www.w3.org/1999/xlink" x="0px" y="0px"
	 viewBox="0 0 54 54" style="enable-background:new 0 0 54 54;" xml:space="preserve">
<style type="text/css">
	.st0{fill:url(#SVGID_1_);}
</style>
<linearGradient id="SVGID_1_" gradientUnits="userSpaceOnUse" x1="-54.4854" y1="26.9997" x2="102.3141" y2="26.9997">
	<stop  offset="0" style="stop-color:#A77AFF"/>
	<stop  offset="1" style="stop-color:#6BCFFF"/>
</linearGradient>
<path class="st0" d="M27,54c14.9,0,27-12.1,27-27S41.9,0,27,0C12.1,0,0,12.1,0,27S12.1,54,27,54z M19.1,39.2c-2,0-3.9,0-5.9,0
	c0-6.3,0-12.6,0-19c2,0,3.9,0,5.9,0C19.1,26.5,19.1,32.9,19.1,39.2z M22.9,20.2c1.9,0,3.7,0,5.6,0c0,0.9,0,1.7,0,2.6
	c0.1-0.1,0.1-0.1,0.1-0.1c0.9-1.5,2.2-2.4,3.9-2.8c1.7-0.4,3.4-0.3,5.1,0.4c1.5,0.6,2.4,1.7,2.9,3.2c0.3,0.9,0.5,1.9,0.6,2.9
	c0.1,1,0.1,2,0.1,2.9c0,3.2,0,6.4,0,9.6c0,0.1,0,0.1,0,0.2c-2,0-3.9,0-5.9,0c0-0.1,0-0.1,0-0.2c0-3.2,0-6.5,0-9.7
	c0-0.9-0.1-1.8-0.4-2.6c-0.4-1.1-1.3-1.7-2.4-1.7c-0.6,0-1.2,0-1.8,0.3c-0.9,0.4-1.4,1.1-1.6,2c-0.2,0.7-0.3,1.4-0.3,2.1
	c0,3.2,0,6.5,0,9.7c0,0.1,0,0.2,0,0.3c-2,0-3.9,0-5.9,0C22.9,32.9,22.9,26.6,22.9,20.2z M16.2,10.8c1.9,0,3.5,1.6,3.5,3.5
	c0,1.9-1.6,3.4-3.5,3.4c-1.9,0-3.4-1.5-3.4-3.4C12.7,12.3,14.3,10.8,16.2,10.8z"/>
</svg>
