<?xml version="1.0" encoding="utf-8"?>
<!-- Generator: Adobe Illustrator 21.0.0, SVG Export Plug-In . SVG Version: 6.00 Build 0)  -->
<svg version="1.1" id="Layer_1" xmlns="http://www.w3.org/2000/svg" xmlns:xlink="http://www.w3.org/1999/xlink" x="0px" y="0px"
	 viewBox="0 0 54 54" style="enable-background:new 0 0 54 54;" xml:space="preserve">
<style type="text/css">
	.st0{fill:url(#SVGID_1_);}
</style>
<linearGradient id="SVGID_1_" gradientUnits="userSpaceOnUse" x1="-55.7569" y1="26.9997" x2="101.0435" y2="26.9997">
	<stop  offset="0" style="stop-color:#A77AFF"/>
	<stop  offset="1" style="stop-color:#6BCFFF"/>
</linearGradient>
<path class="st0" d="M27,0C12.1,0,0,12.1,0,27c0,14.9,12.1,27,27,27s27-12.1,27-27C54,12.1,41.9,0,27,0z M17.5,37.8
	c-6,0-10.8-4.8-10.8-10.8c0-6,4.8-10.8,10.8-10.8S28.3,21,28.3,27C28.3,33,23.5,37.8,17.5,37.8z M35.2,37.2c-2.9,0-5.3-4.6-5.3-10.2
	c0-5.6,2.4-10.2,5.3-10.2s5.3,4.6,5.3,10.2C40.5,32.6,38.1,37.2,35.2,37.2z M44.1,36.2c-1.1,0-2-4.1-2-9.2s0.9-9.2,2-9.2
	c1.1,0,2,4.1,2,9.2S45.2,36.2,44.1,36.2z"/>
</svg>
