<?xml version="1.0" encoding="utf-8"?>
<!-- Generator: Adobe Illustrator 21.0.0, SVG Export Plug-In . SVG Version: 6.00 Build 0)  -->
<svg version="1.1" id="Layer_1" xmlns="http://www.w3.org/2000/svg" xmlns:xlink="http://www.w3.org/1999/xlink" x="0px" y="0px"
	 viewBox="0 0 54 54" style="enable-background:new 0 0 54 54;" xml:space="preserve">
<style type="text/css">
	.st0{fill:url(#SVGID_1_);}
	.st1{fill:url(#SVGID_2_);}
	.st2{fill:url(#SVGID_3_);}
	.st3{fill:url(#SVGID_4_);}
	.st4{fill:url(#SVGID_5_);}
	.st5{fill:url(#SVGID_6_);}
	.st6{fill:url(#SVGID_7_);}
	.st7{fill:url(#SVGID_8_);}
	.st8{fill:url(#SVGID_9_);}
	.st9{fill:url(#SVGID_10_);}
</style>
<g>
	<linearGradient id="SVGID_1_" gradientUnits="userSpaceOnUse" x1="-56.4558" y1="37.8707" x2="100.3438" y2="37.8707">
		<stop  offset="0" style="stop-color:#A77AFF"/>
		<stop  offset="1" style="stop-color:#6BCFFF"/>
	</linearGradient>
	<path class="st0" d="M13.9,34.4c1.9,3.3,5,5.9,8.8,7c-1.3-1.8-2.4-4.2-3.1-7H13.9z"/>
	<linearGradient id="SVGID_2_" gradientUnits="userSpaceOnUse" x1="-56.4558" y1="37.8707" x2="100.3438" y2="37.8707">
		<stop  offset="0" style="stop-color:#A77AFF"/>
		<stop  offset="1" style="stop-color:#6BCFFF"/>
	</linearGradient>
	<path class="st1" d="M31.3,41.4c3.7-1.1,6.9-3.7,8.8-7h-5.7C33.7,37.2,32.7,39.6,31.3,41.4z"/>
	<linearGradient id="SVGID_3_" gradientUnits="userSpaceOnUse" x1="-56.4558" y1="16.1287" x2="100.3438" y2="16.1287">
		<stop  offset="0" style="stop-color:#A77AFF"/>
		<stop  offset="1" style="stop-color:#6BCFFF"/>
	</linearGradient>
	<path class="st2" d="M22.7,12.6c-3.7,1.1-6.9,3.7-8.8,7h5.7C20.3,16.8,21.3,14.4,22.7,12.6z"/>
	<linearGradient id="SVGID_4_" gradientUnits="userSpaceOnUse" x1="-56.4558" y1="16.0403" x2="100.3438" y2="16.0403">
		<stop  offset="0" style="stop-color:#A77AFF"/>
		<stop  offset="1" style="stop-color:#6BCFFF"/>
	</linearGradient>
	<path class="st3" d="M31.5,19.6c-1-3.6-2.7-6.2-4.5-7.2c-1.8,1-3.4,3.6-4.5,7.2H31.5z"/>
	<linearGradient id="SVGID_5_" gradientUnits="userSpaceOnUse" x1="-56.4558" y1="26.9997" x2="100.3438" y2="26.9997">
		<stop  offset="0" style="stop-color:#A77AFF"/>
		<stop  offset="1" style="stop-color:#6BCFFF"/>
	</linearGradient>
	<path class="st4" d="M27,0C12.1,0,0,12.1,0,27c0,14.9,12.1,27,27,27c14.9,0,27-12.1,27-27C54,12.1,41.9,0,27,0z M28.6,44.8
		L28.6,44.8c-0.2,0.1-0.4,0.1-0.6,0c-0.3,0-0.7,0-1,0c-0.3,0-0.7,0-1,0c-0.2,0-0.4,0-0.6,0v-0.1C16.3,44,9.1,36.3,9.1,27
		s7.2-17,16.3-17.8V9.1c0.2,0,0.4,0,0.6,0c0.3,0,0.7,0,1,0c0.3,0,0.7,0,1,0c0.2,0,0.4,0,0.6,0v0.1C37.7,10,44.9,17.7,44.9,27
		S37.7,44,28.6,44.8z"/>
	<linearGradient id="SVGID_6_" gradientUnits="userSpaceOnUse" x1="-56.4558" y1="26.9997" x2="100.3438" y2="26.9997">
		<stop  offset="0" style="stop-color:#A77AFF"/>
		<stop  offset="1" style="stop-color:#6BCFFF"/>
	</linearGradient>
	<path class="st5" d="M18.7,27c0-1.6,0.1-3.1,0.3-4.5h-6.4C12.2,23.9,12,25.4,12,27c0,1.6,0.2,3.1,0.7,4.5H19
		C18.8,30.1,18.7,28.6,18.7,27z"/>
	<linearGradient id="SVGID_7_" gradientUnits="userSpaceOnUse" x1="-56.4558" y1="26.9997" x2="100.3438" y2="26.9997">
		<stop  offset="0" style="stop-color:#A77AFF"/>
		<stop  offset="1" style="stop-color:#6BCFFF"/>
	</linearGradient>
	<path class="st6" d="M21.6,27c0,1.6,0.1,3.1,0.3,4.5h10.1c0.2-1.4,0.3-2.9,0.3-4.5c0-1.6-0.1-3.1-0.3-4.5H21.9
		C21.7,23.9,21.6,25.4,21.6,27z"/>
	<linearGradient id="SVGID_8_" gradientUnits="userSpaceOnUse" x1="-56.4558" y1="37.9591" x2="100.3438" y2="37.9591">
		<stop  offset="0" style="stop-color:#A77AFF"/>
		<stop  offset="1" style="stop-color:#6BCFFF"/>
	</linearGradient>
	<path class="st7" d="M22.5,34.4c1,3.6,2.7,6.2,4.5,7.2c1.8-1,3.4-3.6,4.5-7.2H22.5z"/>
	<linearGradient id="SVGID_9_" gradientUnits="userSpaceOnUse" x1="-56.4558" y1="26.9997" x2="100.3438" y2="26.9997">
		<stop  offset="0" style="stop-color:#A77AFF"/>
		<stop  offset="1" style="stop-color:#6BCFFF"/>
	</linearGradient>
	<path class="st8" d="M35.3,27c0,1.6-0.1,3.1-0.3,4.5h6.4c0.4-1.4,0.7-2.9,0.7-4.5c0-1.6-0.2-3.1-0.7-4.5H35
		C35.2,23.9,35.3,25.4,35.3,27z"/>
	<linearGradient id="SVGID_10_" gradientUnits="userSpaceOnUse" x1="-56.4558" y1="16.1287" x2="100.3438" y2="16.1287">
		<stop  offset="0" style="stop-color:#A77AFF"/>
		<stop  offset="1" style="stop-color:#6BCFFF"/>
	</linearGradient>
	<path class="st9" d="M31.3,12.6c1.3,1.8,2.4,4.2,3.1,7h5.7C38.2,16.3,35.1,13.7,31.3,12.6z"/>
</g>
</svg>
